HIERARCHY
ROOT Hips
{
	OFFSET -0.001795 -0.223333 0.028219
	CHANNELS 6 Xposition Yposition Zposition Zrotation Yrotation Xrotation 
	JOINT LeftUpLeg
	{
		OFFSET 0.069520 -0.091406 -0.006815
		CHANNELS 3 Zrotation Yrotation Xrotation
		JOINT LeftLeg
		{
			OFFSET 0.034277 -0.375199 -0.004496
			CHANNELS 3 Zrotation Yrotation Xrotation
			JOINT LeftFoot
			{
				OFFSET -0.013596 -0.397961 -0.043693
				CHANNELS 3 Zrotation Yrotation Xrotation
				JOINT LeftToe
				{
					OFFSET 0.026358 -0.055791 0.119288
					CHANNELS 3 Zrotation Yrotation Xrotation
					End Site
					{
						OFFSET 0.000000 0.000000 0.000000
					}
				}
			}
		}
	}
	JOINT RightUpLeg
	{
		OFFSET -0.067670 -0.090522 -0.004320
		CHANNELS 3 Zrotation Yrotation Xrotation
		JOINT RightLeg
		{
			OFFSET -0.038290 -0.382569 -0.008850
			CHANNELS 3 Zrotation Yrotation Xrotation
			JOINT RightFoot
			{
				OFFSET 0.015774 -0.398415 -0.042312
				CHANNELS 3 Zrotation Yrotation Xrotation
				JOINT RightToe
				{
					OFFSET -0.025372 -0.048144 0.123348
					CHANNELS 3 Zrotation Yrotation Xrotation
					End Site
					{
						OFFSET 0.000000 0.000000 0.000000
					}
				}
			}
		}
	}
	JOINT Spine
	{
		OFFSET -0.002533 0.108963 -0.026696
		CHANNELS 3 Zrotation Yrotation Xrotation
		JOINT Spine1
		{
			OFFSET 0.005487 0.135180 0.001092
			CHANNELS 3 Zrotation Yrotation Xrotation
			JOINT Spine2
			{
				OFFSET 0.001457 0.052922 0.025425
				CHANNELS 3 Zrotation Yrotation Xrotation
				JOINT Neck
				{
					OFFSET -0.002778 0.213870 -0.042857
					CHANNELS 3 Zrotation Yrotation Xrotation
					JOINT Head
					{
						OFFSET 0.005152 0.064970 0.051349
						CHANNELS 3 Zrotation Yrotation Xrotation
						End Site
						{
							OFFSET 0.000000 0.000000 0.000000
						}
					}
				}
				JOINT LeftShoulder
				{
					OFFSET 0.078845 0.121749 -0.034090
					CHANNELS 3 Zrotation Yrotation Xrotation
					JOINT LeftArm
					{
						OFFSET 0.090977 0.030469 -0.008868
						CHANNELS 3 Zrotation Yrotation Xrotation
						JOINT LeftForeArm
						{
							OFFSET 0.259612 -0.012772 -0.027456
							CHANNELS 3 Zrotation Yrotation Xrotation
							JOINT LeftHand
							{
								OFFSET 0.249234 0.008986 -0.001171
								CHANNELS 3 Zrotation Yrotation Xrotation
								End Site
								{
									OFFSET 0.000000 0.000000 0.000000
								}
							}
						}
					}
				}
				JOINT RightShoulder
				{
					OFFSET -0.081759 0.118833 -0.038615
					CHANNELS 3 Zrotation Yrotation Xrotation
					JOINT RightArm
					{
						OFFSET -0.096012 0.032551 -0.009143
						CHANNELS 3 Zrotation Yrotation Xrotation
						JOINT RightForeArm
						{
							OFFSET -0.253742 -0.013329 -0.021401
							CHANNELS 3 Zrotation Yrotation Xrotation
							JOINT RightHand
							{
								OFFSET -0.255298 0.007772 -0.005559
								CHANNELS 3 Zrotation Yrotation Xrotation
								End Site
								{
									OFFSET 0.000000 0.000000 0.000000
								}
							}
						}
					}
				}
			}
		}
	}
}
MOTION
Frames: 17
Frame Time: 0.050000
0.753131 0.889196 0.584237 -177.167639 55.888765 -169.402948 12.100559 -16.259046 -39.725162 -20.409000 -9.645279 22.832939 46.600266 22.752509 49.959907 0.000000 0.000000 0.000000 9.430261 -14.170133 -35.621113 -42.087823 -17.551839 62.555525 9.891099 16.138750 -12.407358 0.000000 0.000000 0.000000 -23.174607 -17.510852 45.450544 -6.289734 -0.718140 -30.385320 8.757357 35.266046 32.219596 11.111953 9.207320 -47.658029 0.000000 0.000000 0.000000 -4.458439 -11.158983 -22.036002 -38.992456 35.692021 -18.297871 -65.538814 -16.464762 -0.522603 0.000000 0.000000 0.000000 29.876229 -11.314853 31.020689 40.709970 17.355651 -7.545426 49.872960 35.096144 17.817360 0.000000 0.000000 0.000000 
0.757617 0.888372 0.587553 -177.451316 53.730988 -170.111174 11.971885 -15.788159 -38.673923 -20.426654 -9.941979 22.245995 47.499121 20.525105 48.062942 0.000000 0.000000 0.000000 9.741290 -14.117037 -35.169381 -38.751644 -18.586341 59.361139 12.231241 18.427505 -14.579339 0.000000 0.000000 0.000000 -23.247078 -18.032284 45.754992 -6.132928 -0.419521 -29.452724 8.232692 35.108478 31.389891 10.731792 9.383654 -45.516619 0.000000 0.000000 0.000000 -3.541546 -10.453258 -21.861149 -39.649256 35.958822 -19.311491 -67.424130 -15.712549 -1.360867 0.000000 0.000000 0.000000 28.416671 -10.819772 30.714301 41.202251 17.051367 -6.896550 52.309239 35.110761 19.253189 0.000000 0.000000 0.000000 
0.763044 0.886250 0.591068 -177.734186 51.581085 -170.805501 11.567509 -15.214904 -37.454531 -20.186025 -10.352583 22.722847 47.588553 18.850678 44.846117 0.000000 0.000000 0.000000 9.832647 -14.302698 -34.806253 -36.545522 -18.969083 56.392331 13.940846 19.355943 -15.158417 0.000000 0.000000 0.000000 -21.817981 -18.329669 45.330669 -6.225804 -0.503575 -29.209161 7.734875 34.295122 31.647938 11.135632 9.317741 -45.680257 0.000000 0.000000 0.000000 -3.892204 -10.862666 -23.555504 -37.176080 37.595390 -18.390936 -69.897813 -14.236055 -1.945905 0.000000 0.000000 0.000000 28.185023 -11.253931 31.315759 39.834416 17.026632 -6.776322 54.087569 36.585280 20.837925 0.000000 0.000000 0.000000 
0.768596 0.884575 0.596116 -178.053381 49.783937 -171.603476 12.019419 -14.562897 -36.264734 -20.642171 -10.699376 22.283053 50.338824 15.783197 45.310634 0.000000 0.000000 0.000000 9.970739 -14.303670 -34.478614 -35.146475 -19.235100 54.426807 17.604747 23.808727 -16.110546 0.000000 0.000000 0.000000 -21.500497 -18.342697 44.854597 -5.434986 -0.204239 -28.786861 7.513985 33.906148 31.419244 11.575866 9.378600 -45.298101 0.000000 0.000000 0.000000 -3.569528 -10.791331 -24.523227 -36.021147 38.692699 -18.281070 -72.189404 -12.657683 -3.158524 0.000000 0.000000 0.000000 27.855810 -11.573601 31.854326 38.842370 17.116788 -6.627409 55.252412 36.687018 21.242047 0.000000 0.000000 0.000000 
0.773819 0.883342 0.603076 -178.300334 47.252924 -172.261976 12.949582 -14.488405 -35.686963 -21.478057 -11.247245 21.762926 51.822988 11.394344 46.525581 0.000000 0.000000 0.000000 9.910462 -14.030073 -33.436180 -32.255880 -20.002723 51.487774 18.737063 23.090083 -16.924465 0.000000 0.000000 0.000000 -22.010330 -19.068783 45.356655 -5.376576 -0.126555 -28.141141 8.268160 33.875372 31.265372 11.895361 9.334769 -45.906791 0.000000 0.000000 0.000000 -3.430379 -10.954609 -26.107669 -34.802467 39.646156 -17.941875 -73.949418 -11.066710 -4.201792 0.000000 0.000000 0.000000 26.024883 -11.571337 31.305103 39.593317 17.017908 -5.797834 55.975245 35.973575 21.871747 0.000000 0.000000 0.000000 
0.777981 0.882330 0.612093 -178.427897 44.994264 -172.620805 15.116813 -15.146328 -36.148902 -22.469542 -11.624392 20.676643 52.414132 6.923155 49.193803 0.000000 0.000000 0.000000 9.674707 -13.713686 -32.348703 -30.671149 -20.612399 49.654498 21.431986 25.281204 -18.055138 0.000000 0.000000 0.000000 -22.253586 -19.686226 45.758824 -4.517304 0.106226 -27.843407 8.435654 33.959225 31.118465 12.679060 9.366244 -46.302520 0.000000 0.000000 0.000000 -3.085269 -11.413851 -27.337800 -34.052324 40.782427 -17.933887 -75.035961 -9.287567 -5.620732 0.000000 0.000000 0.000000 25.464556 -11.779886 31.888474 38.739718 17.800760 -5.326569 55.921966 36.585946 22.034670 0.000000 0.000000 0.000000 
0.781059 0.880572 0.622019 -178.330968 43.299109 -172.804427 17.019530 -15.891582 -36.848649 -23.171482 -11.908044 20.325902 53.148748 3.174727 52.201220 0.000000 0.000000 0.000000 10.049073 -13.652533 -32.183668 -29.314604 -20.853918 48.166990 21.954039 24.792151 -18.151361 0.000000 0.000000 0.000000 -22.586697 -20.248326 46.237453 -4.445431 0.112953 -27.631220 9.249200 33.989143 31.061022 12.194084 9.471362 -46.007291 0.000000 0.000000 0.000000 -3.560645 -12.440469 -28.766932 -32.900030 41.972459 -17.349658 -74.744840 -8.461183 -5.589471 0.000000 0.000000 0.000000 25.062506 -11.494548 32.446884 38.513881 17.851939 -5.163900 54.394271 37.507385 21.572755 0.000000 0.000000 0.000000 
0.783358 0.879116 0.631554 -178.655214 41.529283 -173.122420 18.538317 -16.543317 -37.372084 -23.684834 -12.167455 19.548574 54.068699 -0.549745 54.473068 0.000000 0.000000 0.000000 9.952658 -13.483148 -31.521122 -28.242464 -21.130803 46.772691 23.451567 25.505216 -18.661210 0.000000 0.000000 0.000000 -22.679968 -20.839244 46.696247 -4.222885 -0.070398 -28.066778 9.727318 33.852992 31.258115 12.161116 9.525465 -46.794960 0.000000 0.000000 0.000000 -3.777652 -13.375866 -30.194334 -31.860695 43.019251 -16.802381 -74.206637 -8.052915 -5.394790 0.000000 0.000000 0.000000 25.354553 -11.691337 33.391819 37.293801 19.141801 -4.853984 53.471120 38.439392 21.052710 0.000000 0.000000 0.000000 
0.785344 0.879208 0.639958 -179.002344 40.504615 -173.506575 19.169447 -16.718587 -37.329257 -23.363173 -12.095066 18.908494 54.537562 -5.131171 56.966697 0.000000 0.000000 0.000000 10.010759 -13.363615 -31.201429 -27.179648 -21.215839 45.609275 23.764609 25.022774 -19.159418 0.000000 0.000000 0.000000 -22.071821 -20.847222 46.226931 -4.533324 -0.148906 -27.818014 9.877831 33.297187 30.957637 12.142843 9.543433 -46.452163 0.000000 0.000000 0.000000 -3.854481 -14.529824 -30.972402 -31.950855 43.778228 -16.911653 -73.346176 -6.901993 -6.026238 0.000000 0.000000 0.000000 24.918642 -11.413942 33.822307 36.932677 20.190575 -4.252514 52.221264 38.359006 20.306885 0.000000 0.000000 0.000000 
0.787528 0.881117 0.646885 -179.503159 39.409601 -173.912418 19.615843 -16.870029 -37.207345 -23.124125 -12.091280 17.769666 54.316426 -8.050606 57.726068 0.000000 0.000000 0.000000 10.230019 -13.557095 -31.316070 -26.439635 -21.349520 44.873836 24.519291 25.162637 -18.268622 0.000000 0.000000 0.000000 -21.601284 -20.860455 45.889564 -4.465409 -0.407268 -28.407960 10.046503 32.764434 31.413445 13.032510 9.566275 -46.893971 0.000000 0.000000 0.000000 -3.349298 -15.469117 -31.568089 -32.444010 44.831920 -17.566586 -72.784592 -5.998862 -6.719122 0.000000 0.000000 0.000000 25.433408 -11.882436 35.016083 35.174317 22.427279 -3.851448 51.994033 38.713602 19.836087 0.000000 0.000000 0.000000 
0.790646 0.884594 0.652617 -179.726389 38.225745 -174.292856 19.475726 -16.458850 -36.135357 -21.971538 -11.777975 16.280936 54.032352 -14.601419 59.515645 0.000000 0.000000 0.000000 10.037828 -13.301832 -30.635567 -24.935405 -21.735420 43.664020 24.510279 23.749614 -18.148239 0.000000 0.000000 0.000000 -21.277631 -20.870639 45.525006 -4.414428 -0.346753 -28.066210 9.778116 32.378408 30.712461 13.989959 9.549472 -46.353111 0.000000 0.000000 0.000000 -3.350740 -16.059689 -32.484225 -31.610171 45.929200 -17.375072 -72.725501 -4.349211 -7.670082 0.000000 0.000000 0.000000 25.871165 -11.908548 36.210679 33.966548 23.387917 -3.895083 51.804797 39.019976 19.311269 0.000000 0.000000 0.000000 
0.794664 0.887970 0.657643 -179.968669 36.931685 -174.405749 19.547376 -16.243160 -35.328213 -20.416249 -11.237982 14.623295 53.258027 -17.897456 58.569248 0.000000 0.000000 0.000000 9.610358 -12.965721 -29.673480 -22.520744 -22.283525 41.974792 24.748396 22.425651 -18.096639 0.000000 0.000000 0.000000 -20.366747 -20.618848 44.687374 -4.430463 -0.445536 -28.069408 9.872218 31.533837 30.739757 14.580924 9.563873 -45.631625 0.000000 0.000000 0.000000 -3.159079 -16.801129 -34.020846 -30.272283 47.139764 -16.828158 -72.938398 -1.927185 -9.277174 0.000000 0.000000 0.000000 26.476433 -12.541430 37.594687 32.124839 24.371191 -4.050430 51.647920 39.478223 18.888752 0.000000 0.000000 0.000000 
0.799367 0.889318 0.661977 179.840412 35.579253 -174.235095 20.008426 -16.229738 -34.733882 -19.802983 -11.162951 12.961089 53.568515 -23.138555 59.777975 0.000000 0.000000 0.000000 9.523682 -13.000822 -29.395761 -21.539359 -22.730616 41.251567 25.054083 21.964736 -18.339975 0.000000 0.000000 0.000000 -19.916770 -20.374098 43.887717 -3.802190 -0.175744 -27.746107 9.418663 30.835083 30.492359 14.350383 9.493953 -45.908827 0.000000 0.000000 0.000000 -2.483051 -16.856375 -35.173108 -28.388267 48.039400 -16.237637 -74.368076 0.713007 -11.582118 0.000000 0.000000 0.000000 25.670479 -12.922028 38.020281 31.863952 24.590430 -3.635519 53.031512 39.855068 19.985456 0.000000 0.000000 0.000000 
0.804312 0.887816 0.665838 179.413271 34.017790 -174.926067 21.049837 -16.677206 -34.733158 -20.721624 -11.777918 12.661479 52.975874 -26.450904 61.994989 0.000000 0.000000 0.000000 9.243414 -13.115667 -28.951448 -22.419634 -23.395925 41.872331 26.415083 22.989744 -17.973610 0.000000 0.000000 0.000000 -19.465161 -20.544937 43.782575 -3.972982 -0.207404 -27.237870 9.185874 30.712422 29.681957 14.558759 9.368275 -45.204886 0.000000 0.000000 0.000000 -2.416825 -17.464152 -36.482437 -24.664783 48.676497 -14.128108 -75.611483 3.952695 -14.010453 0.000000 0.000000 0.000000 25.382709 -13.137608 38.665051 31.042566 24.049433 -3.787788 54.551050 40.323491 20.948372 0.000000 0.000000 0.000000 
0.809146 0.884393 0.668961 178.984563 32.648180 -175.777317 21.967878 -17.041112 -34.620568 -21.972576 -12.565626 12.736706 52.433471 -28.867561 63.978463 0.000000 0.000000 0.000000 8.900099 -13.065212 -28.340773 -23.328909 -23.900036 42.343432 27.622654 23.770261 -18.104377 0.000000 0.000000 0.000000 -20.431532 -21.130005 44.545548 -3.293627 -0.067320 -27.414656 9.551095 31.573748 30.246046 14.635922 9.429726 -45.913248 0.000000 0.000000 0.000000 -2.518064 -17.946147 -38.802042 -20.464788 49.649044 -11.666312 -76.681750 6.591501 -15.505621 0.000000 0.000000 0.000000 24.983972 -13.912866 39.227512 29.681194 23.906776 -3.805655 56.200671 40.921134 22.245064 0.000000 0.000000 0.000000 
0.813765 0.881233 0.671902 178.208620 31.340249 -176.968271 22.308975 -17.164259 -34.195248 -23.451636 -13.541780 13.270687 51.832890 -31.658233 66.207718 0.000000 0.000000 0.000000 8.497658 -13.141836 -27.820791 -24.874315 -24.677325 43.537343 27.277182 23.002181 -18.571669 0.000000 0.000000 0.000000 -19.887819 -21.286537 44.373807 -4.210625 -0.506332 -27.103289 9.663700 31.986148 29.910713 14.857245 9.294616 -45.390295 0.000000 0.000000 0.000000 -2.424792 -18.581901 -40.980241 -16.816969 49.864439 -9.404487 -77.136419 8.971668 -17.067871 0.000000 0.000000 0.000000 24.222519 -14.625881 39.367633 29.464082 24.063528 -3.423219 58.017367 40.791234 23.626983 0.000000 0.000000 0.000000 
0.817856 0.880328 0.674729 178.089713 30.031100 -178.027400 24.147311 -18.091998 -34.779725 -26.418675 -14.997923 14.515890 48.451703 -31.026233 70.112834 0.000000 0.000000 0.000000 7.806738 -12.842020 -26.659867 -25.459938 -25.583313 44.120570 28.060064 23.042726 -18.827504 0.000000 0.000000 0.000000 -21.210608 -21.958423 45.337935 -3.564685 -0.302460 -27.128873 9.938043 33.471504 30.207172 14.805052 9.156081 -45.531791 0.000000 0.000000 0.000000 -2.070122 -18.612301 -43.260266 -14.191822 49.959035 -7.851290 -77.737397 11.692992 -19.051016 0.000000 0.000000 0.000000 23.875161 -15.253978 40.499683 28.450507 25.008758 -3.315107 58.860678 41.255391 24.284477 0.000000 0.000000 0.000000 
